<svg width="115" height="89" viewBox="0 0 115 89" fill="none" xmlns="http://www.w3.org/2000/svg">
<path d="M22.1878 82.806C17.141 79.8922 12.7176 76.013 9.17006 71.3897C5.62251 66.7665 3.02032 61.4897 1.51206 55.8608C0.00379635 50.2319 -0.381 44.361 0.37964 38.5834C1.14028 32.8058 3.03146 27.2345 5.9452 22.1878C8.85895 17.141 12.7382 12.7176 17.3614 9.17006C21.9847 5.62251 27.2614 3.02032 32.8903 1.51206C38.5193 0.0037954 44.3901 -0.381 50.1678 0.379641C55.9454 1.14028 61.5166 3.03146 66.5634 5.94521L54.3601 27.0819C52.0891 25.7707 49.582 24.9197 46.9821 24.5774C44.3821 24.2351 41.7402 24.4083 39.2072 25.087C36.6742 25.7657 34.2997 26.9367 32.2192 28.5331C30.1388 30.1295 28.3931 32.12 27.0819 34.3911C25.7707 36.6621 24.9197 39.1692 24.5774 41.7691C24.2351 44.369 24.4083 47.0109 25.087 49.5439C25.7657 52.0769 26.9367 54.4515 28.5331 56.5319C30.1295 58.6124 32.12 60.3581 34.3911 61.6692L22.1878 82.806Z" fill="#323338"/>
<path fill-rule="evenodd" clip-rule="evenodd" d="M115 84.1073L71.2072 8.25598L27.4144 84.1073H52.4389L71.2072 51.5996L89.9755 84.1073H115Z" fill="#323338"/>
<path d="M39.6283 62.9514L74.3032 62.9514L61.5065 84.6232H26.8317L39.6283 62.9514Z" fill="#323338"/>
<path d="M62.9512 12.9568C54.8921 8.30392 45.3148 7.04304 36.326 9.45156L37.6882 14.5354C45.3286 12.4881 53.4694 13.5599 60.3196 17.5149L62.9512 12.9568Z" fill="#0F9D58"/>
<path d="M36.326 9.45156C31.8752 10.6441 27.7029 12.7017 24.0474 15.5067C20.3918 18.3118 17.3244 21.8094 15.0206 25.7998L19.5019 28.3871C21.466 24.9852 24.081 22.0034 27.1974 19.612C30.3139 17.2206 33.8709 15.4665 37.6653 14.4498L36.326 9.45156Z" fill="#DA4437"/>
<path d="M15.0206 25.7998C12.7167 29.7903 11.2213 34.1954 10.6199 38.7638C10.0184 43.3321 10.3227 47.9742 11.5153 52.425L16.5136 51.0857C15.4969 47.2913 15.2375 43.3338 15.7502 39.4392C16.2629 35.5446 17.5378 31.7891 19.5019 28.3871L15.0206 25.7998Z" fill="#F4B400"/>
<path d="M11.5153 52.425C12.7079 56.8758 14.7654 61.0481 17.5705 64.7037C20.3755 68.3593 23.8731 71.4266 27.8635 73.7305L30.4508 69.2491C27.0489 67.285 24.0671 64.6701 21.6757 61.5536C19.2844 58.4371 17.5303 54.8801 16.5136 51.0857L11.5153 52.425Z" fill="#4285F4"/>
</svg>
